<?xml version="1.0" encoding="utf-8"?>
<!-- Generator: Adobe Illustrator 16.0.0, SVG Export Plug-In . SVG Version: 6.00 Build 0)  -->
<!DOCTYPE svg PUBLIC "-//W3C//DTD SVG 1.1//EN" "http://www.w3.org/Graphics/SVG/1.1/DTD/svg11.dtd">
<svg version="1.1" id="Layer_1" xmlns="http://www.w3.org/2000/svg" xmlns:xlink="http://www.w3.org/1999/xlink" x="0px" y="0px"
	 width="841.891px" height="595.279px" viewBox="0 0 841.891 595.279" enable-background="new 0 0 841.891 595.279"
	 xml:space="preserve">
<circle fill="#E6E6E6" cx="420.946" cy="311.692" r="29.449"/>
<path fill="#FF961E" d="M447.237,324.956c-1.681-0.399-3.301-1.119-4.763-2.165c0.96-1.15,1.967-2.357,2.292-2.751
	c0.674-0.822,0.529-1.852-0.168-2.55c-0.699-0.698-1.729-0.843-2.55-0.166c-0.394,0.323-1.601,1.33-2.751,2.29
	c-3.381-4.729-3.381-11.115,0.001-15.843c1.149,0.96,2.356,1.967,2.75,2.291c0.821,0.675,1.852,0.53,2.55-0.168
	c0.697-0.698,0.842-1.728,0.168-2.55c-0.325-0.394-1.332-1.601-2.292-2.75c1.462-1.046,3.082-1.766,4.763-2.165
	c-0.802-1.588-1.74-3.095-2.806-4.501c-2.665,0.892-5.176,2.38-7.298,4.502c-7.324,7.324-7.324,19.199,0.002,26.523
	c2.122,2.122,4.632,3.609,7.297,4.502C445.497,328.05,446.435,326.543,447.237,324.956z"/>
<path fill="#FF961E" d="M419.283,282.292c0.494,1.654,0.68,3.416,0.506,5.203c-1.476-0.257-3.024-0.525-3.528-0.609
	c-1.05-0.173-1.869,0.466-2.125,1.419c-0.255,0.955,0.135,1.918,1.131,2.292c0.478,0.18,1.953,0.722,3.359,1.237
	c-2.403,5.293-7.936,8.486-13.721,7.921c0.257-1.476,0.525-3.024,0.609-3.528c0.174-1.049-0.466-1.868-1.421-2.123
	c-0.954-0.256-1.917,0.135-2.291,1.131c-0.179,0.478-0.721,1.952-1.237,3.358c-1.634-0.742-3.066-1.783-4.251-3.037
	c-0.966,1.472-1.81,3.032-2.503,4.671c2.106,1.863,4.651,3.295,7.552,4.072c10.003,2.681,20.288-3.256,22.969-13.263
	c0.776-2.896,0.81-5.811,0.252-8.562c-1.193-0.147-2.406-0.232-3.639-0.232C420.387,282.243,419.834,282.262,419.283,282.292z"/>
<path fill="#FF961E" d="M401.362,319.086c-2.9,0.777-5.444,2.208-7.55,4.071c0.693,1.64,1.537,3.199,2.503,4.672
	c1.185-1.254,2.617-2.295,4.251-3.037c0.515,1.406,1.057,2.881,1.237,3.359c0.374,0.995,1.337,1.387,2.29,1.13
	c0.956-0.256,1.595-1.074,1.421-2.124c-0.083-0.504-0.352-2.052-0.608-3.527c5.785-0.565,11.317,2.628,13.721,7.921
	c-1.406,0.516-2.881,1.058-3.359,1.237c-0.996,0.374-1.386,1.337-1.131,2.292c0.256,0.954,1.075,1.593,2.125,1.419
	c0.503-0.084,2.052-0.353,3.527-0.609c0.175,1.787-0.011,3.549-0.505,5.202c0.55,0.031,1.104,0.05,1.662,0.05
	c1.233,0,2.445-0.085,3.639-0.231c0.559-2.752,0.524-5.667-0.252-8.563C421.652,322.343,411.366,316.405,401.362,319.086z"/>
<circle fill="none" stroke="#000000" stroke-width="1.7008" stroke-linecap="round" stroke-linejoin="round" stroke-miterlimit="10" cx="420.946" cy="311.692" r="29.449"/>
<path fill="#E6E6E6" d="M419.405,262.978c-9.768,0.855-16.994,9.468-16.14,19.234c0.06,0.682,0.159,1.351,0.293,2.004
	c0.147,0.721,0.336,1.423,0.565,2.104c4.938,1.561,11.001,2.216,17.468,1.649c6.468-0.565,12.325-2.262,16.917-4.656
	c0.107-0.713,0.172-1.437,0.191-2.17c0.018-0.668,0-1.343-0.059-2.025C437.785,269.35,429.174,262.124,419.405,262.978z"/>
<path fill="#FF961E" d="M421.349,285.192c6.646-0.581,12.652-2.34,17.35-4.813c-0.006-0.417-0.021-0.837-0.058-1.261
	c-0.014-0.162-0.048-0.316-0.066-0.477c-4.701,2.481-10.718,4.244-17.377,4.826s-12.889-0.108-17.95-1.735
	c0.01,0.161,0.003,0.319,0.018,0.48c0.037,0.423,0.094,0.84,0.161,1.252C408.482,285.085,414.701,285.774,421.349,285.192z"/>
<path fill="#FF961E" d="M406.995,269.722c-0.377,0.481-0.729,0.982-1.055,1.501c4.275,0.9,9.138,1.204,14.253,0.757
	c5.114-0.447,9.853-1.591,13.905-3.221c-0.411-0.454-0.844-0.886-1.3-1.295c-3.792,1.396-8.112,2.385-12.756,2.792
	C415.399,270.663,410.972,270.439,406.995,269.722z"/>
<path fill="#969696" d="M438.694,281.246c-4.694,2.444-10.667,4.183-17.274,4.762c-6.607,0.577-12.792-0.099-17.838-1.691
	c0.145,0.686,0.323,1.355,0.542,2.004c4.938,1.561,11.001,2.216,17.468,1.649c6.468-0.565,12.325-2.262,16.917-4.656
	C438.611,282.634,438.671,281.944,438.694,281.246z"/>
<path fill="#969696" d="M430.218,265.543c-1.048-0.643-2.161-1.181-3.332-1.597c-2.314,0.538-4.759,0.93-7.295,1.152
	s-5.012,0.26-7.385,0.132c-1.081,0.613-2.083,1.336-3.003,2.151c3.32,0.404,6.891,0.485,10.601,0.161
	C423.515,267.217,427.018,266.518,430.218,265.543z"/>
<path fill="none" stroke="#000000" stroke-width="1.7008" stroke-linecap="round" stroke-linejoin="round" stroke-miterlimit="10" d="
	M419.405,262.978c-9.768,0.855-16.994,9.468-16.14,19.234c0.06,0.682,0.159,1.351,0.293,2.004c0.147,0.721,0.336,1.423,0.565,2.104
	c4.938,1.561,11.001,2.216,17.468,1.649c6.468-0.565,12.325-2.262,16.917-4.656c0.107-0.713,0.172-1.437,0.191-2.17
	c0.018-0.668,0-1.343-0.059-2.025C437.785,269.35,429.174,262.124,419.405,262.978z"/>
<g>
	<circle fill="none" stroke="#E6E6E6" stroke-width="4.252" stroke-miterlimit="10" cx="420.407" cy="274.436" r="4.777"/>
	<circle cx="420.407" cy="274.436" r="4.777"/>
</g>
<line fill="none" stroke="#000000" stroke-width="1.7008" stroke-linecap="round" stroke-linejoin="round" stroke-miterlimit="10" x1="419.406" y1="262.978" x2="418.899" y2="257.194"/>
<line fill="none" stroke="#000000" stroke-width="1.7008" stroke-linecap="round" stroke-linejoin="round" stroke-miterlimit="10" x1="422.638" y1="262.696" x2="421.89" y2="254.137"/>
<circle cx="428.87" cy="278.49" r="2.295"/>
</svg>
