<?xml version="1.0" encoding="utf-8"?>
<!-- Generator: Adobe Illustrator 16.0.0, SVG Export Plug-In . SVG Version: 6.00 Build 0)  -->
<!DOCTYPE svg PUBLIC "-//W3C//DTD SVG 1.1//EN" "http://www.w3.org/Graphics/SVG/1.1/DTD/svg11.dtd">
<svg version="1.1" id="Layer_1" xmlns="http://www.w3.org/2000/svg" xmlns:xlink="http://www.w3.org/1999/xlink" x="0px" y="0px"
	 width="841.891px" height="595.279px" viewBox="0 0 841.891 595.279" enable-background="new 0 0 841.891 595.279"
	 xml:space="preserve">
<circle fill="#E6E6E6" cx="427.248" cy="311.647" r="29.449"/>
<path fill="#FF961E" d="M440.509,327.836c-7.323-7.325-19.198-7.325-26.522,0c-2.122,2.122-3.61,4.633-4.502,7.298
	c1.406,1.065,2.913,2.004,4.5,2.806c0.399-1.681,1.119-3.303,2.165-4.765c1.15,0.961,2.357,1.969,2.751,2.293
	c0.821,0.674,1.851,0.53,2.549-0.169c0.698-0.698,0.842-1.728,0.168-2.549c-0.325-0.395-1.332-1.602-2.292-2.751
	c4.728-3.382,11.116-3.382,15.843,0c-0.96,1.149-1.967,2.356-2.291,2.751c-0.676,0.821-0.531,1.852,0.167,2.549
	c0.698,0.699,1.728,0.843,2.55,0.169c0.395-0.324,1.601-1.332,2.751-2.292c1.046,1.462,1.766,3.082,2.165,4.764
	c1.587-0.803,3.094-1.74,4.5-2.806C444.119,332.469,442.632,329.958,440.509,327.836z"/>
<path fill="#FF961E" d="M456.648,309.985c-1.653,0.494-3.415,0.68-5.202,0.506c0.257-1.476,0.525-3.024,0.609-3.528
	c0.172-1.05-0.467-1.869-1.421-2.125c-0.954-0.254-1.917,0.135-2.291,1.131c-0.18,0.478-0.722,1.954-1.237,3.36
	c-5.293-2.404-8.486-7.937-7.922-13.722c1.476,0.257,3.024,0.525,3.528,0.61c1.05,0.173,1.868-0.467,2.125-1.42
	c0.256-0.954-0.136-1.918-1.13-2.292c-0.479-0.18-1.954-0.721-3.36-1.237c0.742-1.634,1.783-3.065,3.037-4.25
	c-1.472-0.966-3.032-1.81-4.672-2.503c-1.863,2.106-3.294,4.65-4.071,7.55c-2.682,10.005,3.257,20.289,13.262,22.97
	c2.896,0.776,5.812,0.81,8.563,0.252c0.146-1.193,0.231-2.406,0.231-3.639C456.698,311.089,456.679,310.536,456.648,309.985z"/>
<path fill="#FF961E" d="M414.149,291.267c-1.406,0.515-2.881,1.057-3.359,1.237c-0.995,0.374-1.385,1.338-1.13,2.29
	c0.256,0.955,1.075,1.595,2.124,1.421c0.503-0.083,2.052-0.352,3.528-0.608c0.564,5.785-2.628,11.317-7.921,13.721
	c-0.516-1.406-1.058-2.882-1.237-3.359c-0.374-0.997-1.338-1.386-2.292-1.131c-0.954,0.256-1.594,1.075-1.419,2.125
	c0.083,0.503,0.352,2.053,0.608,3.528c-1.787,0.174-3.549-0.012-5.203-0.506c-0.03,0.551-0.049,1.104-0.049,1.662
	c0,1.233,0.084,2.445,0.232,3.639c2.752,0.559,5.667,0.524,8.564-0.252c10.004-2.681,15.94-12.965,13.26-22.97
	c-0.777-2.9-2.208-5.444-4.071-7.55c-1.64,0.694-3.2,1.537-4.671,2.503C412.365,288.202,413.407,289.634,414.149,291.267z"/>
<circle fill="none" stroke="#000000" stroke-width="1.7008" stroke-linecap="round" stroke-linejoin="round" stroke-miterlimit="10" cx="427.248" cy="311.647" r="29.449"/>
<path fill="#E6E6E6" d="M427.248,262.772c-9.805,0.001-17.755,7.95-17.754,17.755c-0.001,0.684,0.04,1.358,0.116,2.021
	c0.084,0.73,0.211,1.446,0.38,2.145c4.783,1.985,10.767,3.166,17.258,3.166c6.492,0,12.474-1.18,17.258-3.165
	c0.169-0.7,0.297-1.416,0.379-2.145c0.077-0.664,0.117-1.338,0.117-2.022C445.004,270.721,437.055,262.772,427.248,262.772z"/>
<path fill="#FF961E" d="M409.519,280.047c-0.004,0.161-0.024,0.318-0.024,0.48c0,0.424,0.02,0.844,0.05,1.261
	c4.896,2.054,11.031,3.283,17.704,3.283c6.672,0.001,12.809-1.228,17.703-3.283c0.03-0.417,0.051-0.836,0.051-1.261
	c0-0.162-0.02-0.319-0.024-0.48c-4.898,2.062-11.046,3.293-17.729,3.293S414.418,282.109,409.519,280.047z"/>
<path fill="#FF961E" d="M414.298,268.409c-0.418,0.447-0.811,0.915-1.182,1.403c4.18,1.27,8.999,1.996,14.132,1.997
	c5.135,0.001,9.953-0.726,14.134-1.997c-0.371-0.488-0.764-0.957-1.183-1.403c-3.899,1.06-8.29,1.668-12.951,1.669
	C422.588,270.078,418.198,269.469,414.298,268.409z"/>
<path fill="#969696" d="M427.248,285.889c-6.633-0.001-12.735-1.213-17.623-3.239c0.084,0.695,0.204,1.377,0.365,2.042
	c4.783,1.985,10.767,3.166,17.258,3.166c6.492,0,12.474-1.18,17.258-3.165c0.161-0.667,0.282-1.35,0.364-2.043
	C439.982,284.677,433.88,285.888,427.248,285.889z"/>
<path fill="#969696" d="M437.797,266.269c-0.987-0.732-2.051-1.365-3.181-1.882c-2.353,0.333-4.821,0.512-7.367,0.512
	s-5.015-0.178-7.368-0.511c-1.13,0.517-2.192,1.149-3.18,1.881c3.272,0.692,6.822,1.084,10.546,1.084
	C430.974,267.353,434.525,266.962,437.797,266.269z"/>
<path fill="none" stroke="#000000" stroke-width="1.7008" stroke-linecap="round" stroke-linejoin="round" stroke-miterlimit="10" d="
	M427.248,262.772c-9.805,0.001-17.755,7.95-17.754,17.755c-0.001,0.684,0.04,1.358,0.116,2.021c0.084,0.73,0.211,1.446,0.38,2.145
	c4.783,1.985,10.767,3.166,17.258,3.166c6.492,0,12.474-1.18,17.258-3.165c0.169-0.7,0.297-1.416,0.379-2.145
	c0.077-0.664,0.117-1.338,0.117-2.022C445.004,270.721,437.055,262.772,427.248,262.772z"/>
<g>
	<circle fill="none" stroke="#E6E6E6" stroke-width="4.252" stroke-miterlimit="10" cx="427.249" cy="274.274" r="4.777"/>
	<circle cx="427.249" cy="274.274" r="4.777"/>
</g>
<line fill="none" stroke="#000000" stroke-width="1.7008" stroke-linecap="round" stroke-linejoin="round" stroke-miterlimit="10" x1="427.248" y1="262.772" x2="427.248" y2="256.966"/>
<line fill="none" stroke="#000000" stroke-width="1.7008" stroke-linecap="round" stroke-linejoin="round" stroke-miterlimit="10" x1="430.493" y1="262.772" x2="430.494" y2="254.181"/>
<circle cx="435.325" cy="279.05" r="2.295"/>
<circle cx="404.499" cy="297.998" r="3.645"/>
<path fill="#969696" stroke="#000000" stroke-width="1.7008" stroke-linecap="round" stroke-linejoin="round" stroke-miterlimit="10" d="
	M404.498,300.125c-0.449,0-0.901-0.143-1.287-0.436l-14.618-11.213c-0.935-0.711-1.115-2.045-0.403-2.979
	c0.711-0.935,2.045-1.114,2.979-0.402l14.618,11.212c0.935,0.712,1.115,2.045,0.403,2.98
	C405.773,299.836,405.139,300.125,404.498,300.125z"/>
<path fill="#969696" stroke="#000000" stroke-width="1.7008" stroke-linecap="round" stroke-linejoin="round" stroke-miterlimit="10" d="
	M389.881,288.912c-1.175,0-2.126-0.952-2.126-2.127v-4.688c0-1.174,0.951-2.126,2.126-2.126c1.174,0,2.126,0.952,2.126,2.126v4.688
	C392.007,287.96,391.055,288.912,389.881,288.912z"/>
<circle fill="#969696" stroke="#000000" stroke-width="1.7008" stroke-linecap="round" stroke-linejoin="round" stroke-miterlimit="10" cx="389.881" cy="286.785" r="4.688"/>
<path fill="#FF961E" stroke="#000000" stroke-width="1.7008" stroke-linecap="round" stroke-linejoin="round" stroke-miterlimit="10" d="
	M393.722,273.967c0,2.962-1.694,5.363-3.785,5.363s-3.786-1.515-3.786-4.417s3.786-4.542,3.786-9.968
	C389.937,264.945,393.722,271.005,393.722,273.967z"/>
</svg>
