<?xml version="1.0" encoding="utf-8"?>
<!-- Generator: Adobe Illustrator 16.0.0, SVG Export Plug-In . SVG Version: 6.00 Build 0)  -->
<!DOCTYPE svg PUBLIC "-//W3C//DTD SVG 1.1//EN" "http://www.w3.org/Graphics/SVG/1.1/DTD/svg11.dtd">
<svg version="1.1" id="Layer_1" xmlns="http://www.w3.org/2000/svg" xmlns:xlink="http://www.w3.org/1999/xlink" x="0px" y="0px"
	 width="841.891px" height="595.279px" viewBox="0 0 841.891 595.279" enable-background="new 0 0 841.891 595.279"
	 xml:space="preserve">
<circle fill="#E6E6E6" cx="420.947" cy="311.483" r="29.449"/>
<path fill="#FF961E" d="M397.46,293.719c-1.065,1.406-2.003,2.913-2.806,4.501c1.682,0.398,3.303,1.119,4.765,2.165
	c-0.96,1.149-1.968,2.356-2.292,2.751c-0.674,0.822-0.531,1.851,0.168,2.549c0.699,0.698,1.728,0.842,2.548,0.168
	c0.395-0.324,1.602-1.331,2.752-2.291c3.382,4.729,3.382,11.115,0,15.843c-1.149-0.96-2.357-1.967-2.751-2.29
	c-0.821-0.676-1.852-0.532-2.548,0.166c-0.699,0.698-0.843,1.728-0.168,2.55c0.324,0.395,1.332,1.602,2.292,2.751
	c-1.462,1.046-3.083,1.766-4.764,2.165c0.802,1.587,1.74,3.094,2.805,4.5c2.666-0.893,5.176-2.38,7.299-4.503
	c7.324-7.323,7.324-19.198,0-26.521C402.636,296.1,400.126,294.612,397.46,293.719z"/>
<path fill="#FF961E" d="M422.104,335.68c1.476,0.257,3.023,0.525,3.527,0.609c1.051,0.173,1.869-0.467,2.125-1.421
	c0.254-0.954-0.135-1.917-1.131-2.291c-0.478-0.18-1.953-0.722-3.359-1.237c2.403-5.292,7.936-8.486,13.721-7.922
	c-0.256,1.476-0.524,3.024-0.608,3.528c-0.174,1.05,0.466,1.869,1.419,2.125c0.954,0.256,1.918-0.135,2.292-1.13
	c0.18-0.479,0.722-1.954,1.237-3.36c1.634,0.742,3.065,1.783,4.25,3.037c0.967-1.472,1.811-3.032,2.504-4.672
	c-2.106-1.863-4.65-3.294-7.551-4.07c-10.005-2.682-20.288,3.256-22.97,13.262c-0.776,2.896-0.81,5.811-0.251,8.562
	c1.193,0.146,2.405,0.231,3.638,0.231c0.559,0,1.111-0.019,1.662-0.05C422.115,339.229,421.929,337.468,422.104,335.68z"/>
<path fill="#FF961E" d="M445.577,295.347c-1.186,1.254-2.617,2.295-4.251,3.037c-0.516-1.407-1.057-2.882-1.237-3.36
	c-0.374-0.995-1.338-1.385-2.29-1.13c-0.955,0.256-1.595,1.076-1.421,2.125c0.083,0.503,0.352,2.052,0.608,3.527
	c-5.785,0.564-11.317-2.628-13.721-7.921c1.406-0.516,2.882-1.058,3.359-1.237c0.997-0.374,1.386-1.338,1.131-2.291
	c-0.256-0.955-1.074-1.594-2.125-1.42c-0.503,0.083-2.052,0.352-3.527,0.608c-0.175-1.787,0.012-3.549,0.505-5.203
	c-0.55-0.03-1.104-0.049-1.662-0.049c-1.233,0-2.445,0.084-3.639,0.232c-0.559,2.752-0.524,5.667,0.252,8.564
	c2.682,10.004,12.965,15.941,22.971,13.26c2.9-0.776,5.444-2.207,7.55-4.07C447.387,298.38,446.543,296.82,445.577,295.347z"/>
<circle fill="none" stroke="#000000" stroke-width="1.7008" stroke-linecap="round" stroke-linejoin="round" stroke-miterlimit="10" cx="420.947" cy="311.483" r="29.449"/>
<path fill="#E6E6E6" d="M422.487,262.768c-9.768-0.854-18.38,6.373-19.234,16.14c-0.06,0.682-0.078,1.357-0.059,2.024
	c0.02,0.735,0.083,1.46,0.191,2.17c4.592,2.395,10.449,4.093,16.916,4.657c6.467,0.566,12.531-0.087,17.468-1.647
	c0.229-0.684,0.418-1.385,0.564-2.104c0.134-0.655,0.234-1.323,0.295-2.005C439.482,272.235,432.256,263.624,422.487,262.768z"/>
<path fill="#FF961E" d="M420.695,283.258c-6.659-0.583-12.674-2.345-17.376-4.826c-0.018,0.16-0.052,0.314-0.066,0.476
	c-0.037,0.423-0.053,0.843-0.059,1.261c4.698,2.473,10.704,4.232,17.351,4.813c6.646,0.583,12.866-0.107,17.922-1.728
	c0.066-0.412,0.125-0.828,0.162-1.251c0.015-0.162,0.008-0.32,0.018-0.482C433.586,283.149,427.355,283.84,420.695,283.258z"/>
<path fill="#FF961E" d="M421.699,271.77c5.114,0.448,9.979,0.144,14.254-0.757c-0.327-0.519-0.678-1.02-1.056-1.501
	c-3.978,0.716-8.404,0.94-13.047,0.534c-4.644-0.406-8.964-1.395-12.756-2.792c-0.456,0.409-0.888,0.841-1.3,1.294
	C411.848,270.179,416.585,271.322,421.699,271.77z"/>
<path fill="#969696" d="M438.31,284.108c-5.048,1.591-11.231,2.267-17.838,1.689c-6.607-0.579-12.581-2.318-17.273-4.763
	c0.023,0.7,0.083,1.391,0.186,2.068c4.592,2.395,10.449,4.093,16.916,4.657c6.467,0.566,12.531-0.087,17.468-1.647
	C437.988,285.461,438.166,284.792,438.31,284.108z"/>
<path fill="#969696" d="M422.303,264.887c-2.537-0.222-4.98-0.614-7.296-1.152c-1.17,0.417-2.284,0.954-3.332,1.597
	c3.2,0.975,6.702,1.675,10.413,1.999c3.711,0.325,7.282,0.244,10.603-0.16c-0.921-0.815-1.924-1.538-3.005-2.151
	C427.314,265.147,424.839,265.109,422.303,264.887z"/>
<g>
	<circle fill="none" stroke="#E6E6E6" stroke-width="4.252" stroke-miterlimit="10" cx="421.485" cy="274.227" r="4.777"/>
	<circle cx="421.485" cy="274.227" r="4.777"/>
</g>
<line fill="none" stroke="#000000" stroke-width="1.7008" stroke-linecap="round" stroke-linejoin="round" stroke-miterlimit="10" x1="422.489" y1="262.768" x2="422.993" y2="256.984"/>
<line fill="none" stroke="#000000" stroke-width="1.7008" stroke-linecap="round" stroke-linejoin="round" stroke-miterlimit="10" x1="425.72" y1="263.052" x2="426.469" y2="254.494"/>
<circle cx="429.115" cy="279.689" r="2.295"/>
<path fill="none" stroke="#000000" stroke-width="1.7008" stroke-linecap="round" stroke-linejoin="round" stroke-miterlimit="10" d="
	M422.487,262.768c-9.768-0.854-18.38,6.373-19.234,16.14c-0.06,0.682-0.078,1.357-0.059,2.024c0.02,0.735,0.083,1.46,0.191,2.17
	c4.592,2.395,10.449,4.093,16.916,4.657c6.467,0.566,12.531-0.087,17.468-1.647c0.229-0.684,0.418-1.385,0.564-2.104
	c0.134-0.655,0.234-1.323,0.295-2.005C439.482,272.235,432.256,263.624,422.487,262.768z"/>
</svg>
