<?xml version="1.0" encoding="utf-8"?>
<!-- Generator: Adobe Illustrator 16.0.0, SVG Export Plug-In . SVG Version: 6.00 Build 0)  -->
<!DOCTYPE svg PUBLIC "-//W3C//DTD SVG 1.1//EN" "http://www.w3.org/Graphics/SVG/1.1/DTD/svg11.dtd">
<svg version="1.1" id="Layer_1" xmlns="http://www.w3.org/2000/svg" xmlns:xlink="http://www.w3.org/1999/xlink" x="0px" y="0px"
	 width="841.891px" height="595.279px" viewBox="0 0 841.891 595.279" enable-background="new 0 0 841.891 595.279"
	 xml:space="preserve">
<g>
	
		<path fill="#393939" stroke="#000000" stroke-width="1.7008" stroke-linecap="round" stroke-linejoin="round" stroke-miterlimit="10" d="
		M408.812,305.835c0,0-2.038,3.994-2.663,7.135c-0.624,3.141-0.414,3.939-0.414,3.939s-2.166,1.139-2.13,1.925
		c0.053,1.155,0.885,2.015,4.833,1.802c3.947-0.213,6.089-1.756,6.158-2.928c0.07-1.172,0.013-8.945,3.954-10.678"/>
	
		<path fill="#393939" stroke="#000000" stroke-width="1.7008" stroke-linecap="round" stroke-linejoin="round" stroke-miterlimit="10" d="
		M433.901,300.35c0,0,2.04,3.994,2.662,7.135c0.623,3.141,0.417,3.939,0.417,3.939s2.164,1.137,2.128,1.925
		c-0.053,1.156-0.886,2.015-4.832,1.802c-3.947-0.213-6.09-1.756-6.16-2.928c-0.069-1.171-0.011-8.947-3.953-10.678"/>
	<g>
		
			<path fill="#393939" stroke="#000000" stroke-width="1.7008" stroke-linecap="round" stroke-linejoin="round" stroke-miterlimit="10" d="
			M410.955,308.559c0,0,2.571,1.912,3.684,4.004c1.272,2.392,1.146,5.018,1.822,5.302c1.495,0.625,2.616-1.563,2.616-1.563h4.561
			c0,0,1.121,2.188,2.615,1.563c0.677-0.284,0.126-2.91,1.398-5.302c1.111-2.092,4.107-4.004,4.107-4.004
			c6.976-2.191,7.35-6.257,7.35-6.257c-3.301-6.256-1.245-12.122-3.426-18.143c-2.436-6.73-7.973-7.351-14.325-7.351
			c-6.354,0-11.89,0.62-14.327,7.351c-2.18,6.021-0.125,11.887-3.426,18.143C403.605,302.302,403.978,306.368,410.955,308.559z"/>
		
			<path fill="#9C9C9C" stroke="#000000" stroke-width="1.4173" stroke-linecap="round" stroke-linejoin="round" stroke-miterlimit="10" d="
			M421.319,294.691c1.557,0,2.393,1.385,5.01,6.603c2.615,5.217,5.43,7.266,5.43,7.266c0.871-2.889,3.551-11.645,3.551-11.645
			c0.248-10.246-2.431-13.227-4.859-14.065c-2.43-0.837-6.165,0.653-9.092,0.653c-2.928,0-6.665-1.491-9.094-0.653
			c-2.429,0.839-5.108,3.819-4.859,14.065c0,0,2.679,8.756,3.551,11.645c0,0,2.815-2.049,5.431-7.266
			C419.002,296.076,419.761,294.691,421.319,294.691z"/>
		<g>
			
				<path fill="none" stroke="#000000" stroke-width="1.4173" stroke-linecap="round" stroke-linejoin="round" stroke-miterlimit="10" d="
				M435.309,296.903c-0.174-7.612-2.316-10.002-4.58-10.993c-2.465-1.08-6.09,0.617-9.372,0.617c-3.281,0-6.908-1.696-9.373-0.617
				c-2.264,0.991-4.407,3.38-4.58,10.993"/>
			
				<path fill="none" stroke="#000000" stroke-width="1.4173" stroke-linecap="round" stroke-linejoin="round" stroke-miterlimit="10" d="
				M435.309,296.891c-0.595-4.978-2.195-6.793-4.301-7.92c-2.496-1.338-6.017,0.583-9.651,0.583c-3.635,0-7.157-1.92-9.652-0.583
				c-2.105,1.127-3.707,2.942-4.301,7.92"/>
		</g>
		
			<path fill="#393939" stroke="#000000" stroke-width="1.4173" stroke-linecap="round" stroke-linejoin="round" stroke-miterlimit="10" d="
			M421.357,294.691c4.221,0,4.848,1.956,9.461,0.938c1.095,1.798,2.846,2.586,2.268,1.251c-1.017-2.345,0.156-3.597-1.799-4.849
			c-2.516-1.611-5.941,0.547-9.93,0.547c-3.989,0-7.416-2.158-9.932-0.547c-1.954,1.252-0.782,2.503-1.798,4.849
			c-0.579,1.335,1.172,0.547,2.268-1.251C416.508,296.646,417.135,294.691,421.357,294.691z"/>
	</g>
</g>
</svg>
