<?xml version="1.0" encoding="utf-8"?>
<!-- Generator: Adobe Illustrator 16.0.0, SVG Export Plug-In . SVG Version: 6.00 Build 0)  -->
<!DOCTYPE svg PUBLIC "-//W3C//DTD SVG 1.1//EN" "http://www.w3.org/Graphics/SVG/1.1/DTD/svg11.dtd">
<svg version="1.1" id="Layer_1" xmlns="http://www.w3.org/2000/svg" xmlns:xlink="http://www.w3.org/1999/xlink" x="0px" y="0px"
	 width="841.891px" height="595.279px" viewBox="0 0 841.891 595.279" enable-background="new 0 0 841.891 595.279"
	 xml:space="preserve">
<g>
	
		<path fill="#393939" stroke="#000000" stroke-width="1.7008" stroke-linecap="round" stroke-linejoin="round" stroke-miterlimit="10" d="
		M433.101,305.835c0,0,2.038,3.994,2.663,7.135c0.623,3.141,0.414,3.939,0.414,3.939s2.165,1.139,2.129,1.925
		c-0.053,1.155-0.885,2.015-4.832,1.802s-6.09-1.756-6.158-2.928c-0.07-1.172-0.014-8.945-3.954-10.678"/>
	
		<path fill="#393939" stroke="#000000" stroke-width="1.7008" stroke-linecap="round" stroke-linejoin="round" stroke-miterlimit="10" d="
		M408.012,300.35c0,0-2.041,3.994-2.663,7.135c-0.624,3.141-0.417,3.939-0.417,3.939s-2.164,1.137-2.127,1.925
		c0.052,1.156,0.885,2.015,4.832,1.802s6.09-1.756,6.159-2.928c0.07-1.171,0.011-8.947,3.953-10.678"/>
	<g>
		
			<path fill="#393939" stroke="#000000" stroke-width="1.7008" stroke-linecap="round" stroke-linejoin="round" stroke-miterlimit="10" d="
			M430.957,308.559c0,0-2.57,1.912-3.684,4.004c-1.271,2.392-1.146,5.018-1.822,5.302c-1.494,0.625-2.615-1.563-2.615-1.563h-4.561
			c0,0-1.122,2.188-2.615,1.563c-0.677-0.284-0.126-2.91-1.398-5.302c-1.112-2.092-4.108-4.004-4.108-4.004
			c-6.976-2.191-7.35-6.257-7.35-6.257c3.302-6.256,1.246-12.122,3.426-18.143c2.436-6.73,7.974-7.351,14.325-7.351
			c6.353,0,11.89,0.62,14.327,7.351c2.18,6.021,0.124,11.887,3.426,18.143C438.308,302.302,437.934,306.368,430.957,308.559z"/>
		
			<path fill="#9C9C9C" stroke="#000000" stroke-width="1.4173" stroke-linecap="round" stroke-linejoin="round" stroke-miterlimit="10" d="
			M420.594,294.691c-1.557,0-2.392,1.385-5.009,6.603c-2.615,5.217-5.43,7.266-5.43,7.266c-0.872-2.889-3.551-11.645-3.551-11.645
			c-0.249-10.246,2.431-13.227,4.859-14.065c2.43-0.837,6.166,0.653,9.093,0.653c2.928,0,6.666-1.491,9.093-0.653
			c2.43,0.839,5.108,3.819,4.859,14.065c0,0-2.678,8.756-3.551,11.645c0,0-2.814-2.049-5.431-7.266
			C422.91,296.076,422.152,294.691,420.594,294.691z"/>
		<g>
			
				<path fill="none" stroke="#000000" stroke-width="1.4173" stroke-linecap="round" stroke-linejoin="round" stroke-miterlimit="10" d="
				M406.604,296.903c0.173-7.612,2.316-10.002,4.58-10.993c2.465-1.08,6.091,0.617,9.372,0.617c3.281,0,6.908-1.696,9.373-0.617
				c2.264,0.991,4.407,3.38,4.58,10.993"/>
			
				<path fill="none" stroke="#000000" stroke-width="1.4173" stroke-linecap="round" stroke-linejoin="round" stroke-miterlimit="10" d="
				M406.604,296.891c0.595-4.978,2.195-6.793,4.3-7.92c2.496-1.338,6.017,0.583,9.651,0.583c3.635,0,7.158-1.92,9.652-0.583
				c2.105,1.127,3.707,2.942,4.301,7.92"/>
		</g>
		
			<path fill="#393939" stroke="#000000" stroke-width="1.4173" stroke-linecap="round" stroke-linejoin="round" stroke-miterlimit="10" d="
			M420.555,294.691c-4.221,0-4.849,1.956-9.461,0.938c-1.095,1.798-2.847,2.586-2.268,1.251c1.017-2.345-0.156-3.597,1.798-4.849
			c2.517-1.611,5.942,0.547,9.931,0.547c3.99,0,7.416-2.158,9.932-0.547c1.954,1.252,0.782,2.503,1.798,4.849
			c0.58,1.335-1.172,0.547-2.268-1.251C425.405,296.646,424.778,294.691,420.555,294.691z"/>
	</g>
</g>
</svg>
