<?xml version="1.0" encoding="utf-8"?>
<!-- Generator: Adobe Illustrator 16.0.0, SVG Export Plug-In . SVG Version: 6.00 Build 0)  -->
<!DOCTYPE svg PUBLIC "-//W3C//DTD SVG 1.1//EN" "http://www.w3.org/Graphics/SVG/1.1/DTD/svg11.dtd">
<svg version="1.1" id="Layer_1" xmlns="http://www.w3.org/2000/svg" xmlns:xlink="http://www.w3.org/1999/xlink" x="0px" y="0px"
	 width="841.891px" height="595.279px" viewBox="0 0 841.891 595.279" enable-background="new 0 0 841.891 595.279"
	 xml:space="preserve">
<g>
	<g>
		<path fill="#E3E1CF" d="M549.462,333.696h-17.043c1.861-2.107,3.268-4.523,4.2-7.22c1.386-3.998,1.412-9.042,0.086-15.42
			c-0.088-0.42-0.213-0.831-0.374-1.228c-1.249-3.071-3.005-5.749-5.223-8.021h1.612c3.914,0,7.087-3.173,7.088-7.088v-16.938
			c0-3.912-3.173-7.086-7.087-7.086h-8.436v-8.832h3.628c3.914,0,7.087-3.172,7.087-7.086v-16.938c0-3.914-3.173-7.086-7.087-7.086
			h-71.221c-2.636,0-5.056,1.465-6.278,3.801l-6.108,11.674l-6.157-11.69c-1.227-2.327-3.641-3.784-6.271-3.784h-30.332
			c-1.011,0-1.97,0.215-2.84,0.596c-0.867-0.374-1.808-0.596-2.794-0.596H348.17c-1.58,0-3.035,0.523-4.213,1.397
			c-0.027-0.01-0.055-0.022-0.082-0.032c-3.899-1.406-9.128-2.263-15.981-2.617c-0.249-0.015-0.497-0.014-0.746,0
			c-6.857,0.367-12.078,1.424-15.963,3.23c-3.502,1.63-6.986,3.8-10.354,6.45c-3.807,2.996-6.818,6.788-8.95,11.271
			c-2.115,4.447-3.188,9.494-3.188,15c0,7.691,1.775,14.391,5.279,19.907c3.035,4.784,7.084,8.569,12.05,11.294
			c-3.714,1.507-7.001,3.503-9.786,5.973c-3.604,3.195-6.368,7.162-8.219,11.788c-1.774,4.438-2.674,9.544-2.674,15.18
			c0,7.512,1.595,14.069,4.738,19.489c3.266,5.629,8.088,9.918,14.334,12.746c5.799,2.627,12.701,3.96,20.514,3.96
			c7.804,0,14.71-1.321,20.522-3.928c6.265-2.804,11.139-7.092,14.486-12.74c0.27-0.455,0.512-0.93,0.76-1.4l4.345,12.35
			c0.998,2.837,3.679,4.735,6.686,4.735h30.214c2.997,0,5.669-1.885,6.675-4.706l5.338-14.967h0.401v12.586
			c0,3.914,3.172,7.087,7.086,7.087h74.133c3.914,0,7.087-3.173,7.087-7.087v-1.179l5.846,6.087c1.336,1.392,3.181,2.179,5.11,2.179
			h35.847c3.913,0,7.087-3.173,7.087-7.085v-16.938C556.55,336.868,553.376,333.696,549.462,333.696z"/>
		<g>
			<path d="M334.815,277.781v-11.503h17.293v28.441h-24.463c-5.987,0-11.403-1.097-16.249-3.289s-8.66-5.481-11.443-9.868
				c-2.784-4.386-4.176-9.756-4.176-16.11c0-4.465,0.834-8.449,2.502-11.955c1.667-3.506,3.979-6.421,6.933-8.745
				s5.941-4.188,8.962-5.594c3.021-1.404,7.472-2.266,13.354-2.58c6.093,0.314,10.74,1.051,13.945,2.206
				c3.203,1.155,6.434,3.257,9.689,6.303l-11.188,12.447c-1.892-1.575-3.572-2.704-5.042-3.389
				c-1.473-0.683-3.889-1.129-7.248-1.339c-3.257,0.42-5.647,1.129-7.17,2.127c-1.523,0.998-2.862,2.285-4.019,3.86
				c-1.155,1.576-1.891,3.992-2.206,7.248c0.315,3.257,1.051,5.542,2.206,6.854c1.155,1.313,2.601,2.391,4.333,3.23
				c1.733,0.84,3.599,1.364,5.595,1.575C328.42,277.913,331.217,277.938,334.815,277.781z"/>
			<path d="M348.169,254.776v-16.938h47.743l19.026,56.882H393.43l-3.585-10.242h-16.899l-3.584,10.242h-20.405l13.117-39.943
				L348.169,254.776L348.169,254.776z M381.85,250.443l-8.154,22.532h15.678L381.85,250.443z"/>
			<path d="M413.362,294.72v-39.943h-11.816v-16.938h30.332l12.447,23.635l12.367-23.635h18.516v56.882h-18.516v-23.636
				l-11.895,23.636h-1.025l-11.896-23.636v23.636L413.362,294.72L413.362,294.72z"/>
			<path d="M479.146,294.72v-39.943H467.33v-16.938h60.584v16.938h-30.252v6.539h19.537v9.928h-19.537v6.539h35.06v16.938H479.146z"
				/>
			<path d="M357.739,329.594c0,6.223-1.3,11.528-3.899,15.914c-2.6,4.387-6.36,7.682-11.285,9.887
				c-4.925,2.207-10.801,3.309-17.627,3.309c-6.829,0-12.691-1.108-17.59-3.327c-4.897-2.22-8.606-5.503-11.128-9.849
				c-2.521-4.346-3.781-9.658-3.781-15.934c0-4.754,0.723-8.937,2.167-12.547c1.443-3.611,3.559-6.65,6.342-9.119
				c2.783-2.468,6.196-4.339,10.242-5.613c4.044-1.272,8.627-1.91,13.748-1.91c6.801,0,12.67,1.123,17.606,3.367
				c4.938,2.246,8.706,5.555,11.306,9.928C356.439,318.07,357.739,323.368,357.739,329.594z M312.636,329.749
				c0,3.65,0.82,6.83,2.462,9.533c1.642,2.705,4.878,4.06,9.711,4.06c3.729,0,6.519-0.709,8.37-2.129
				c1.852-1.418,3.007-3.039,3.467-4.863c0.459-1.826,0.768-4.025,0.926-6.601c-0.158-3.647-1.038-6.834-2.64-9.551
				c-1.603-2.719-4.978-4.078-10.123-4.078C316.693,316.12,312.636,320.663,312.636,329.749z"/>
			<path d="M373.421,300.838l12.92,43.686l13.079-43.686h22.809l-20.287,56.881h-30.214l-20.012-56.881H373.421z"/>
			<path d="M421.439,357.719v-39.943h-11.817v-16.938h60.584v16.938h-30.252v6.539h19.537v9.928h-19.537v6.539h35.06v16.938
				L421.439,357.719L421.439,357.719z"/>
			<path d="M475.011,357.719v-56.881h37.028c4.568,0.42,8.324,1.628,11.267,3.623c2.94,1.996,5.094,4.676,6.461,8.036
				c1.049,5.041,1.102,8.929,0.156,11.658c-0.945,2.732-2.601,5.019-4.964,6.855c-2.362,1.837-5.75,3.283-10.161,4.332l4.254,5.438
				h30.41v16.938h-35.847l-18.043-18.789v18.789H475.011L475.011,357.719z M495.573,315.018v10.479h14.34
				c0.763,0,1.588-0.28,2.48-0.846c0.892-0.564,1.365-1.99,1.418-4.274c-0.131-2.181-0.662-3.617-1.594-4.312
				c-0.935-0.695-1.715-1.045-2.344-1.045L495.573,315.018L495.573,315.018z"/>
		</g>
	</g>
</g>
</svg>
