<?xml version="1.0" encoding="utf-8"?>
<!-- Generator: Adobe Illustrator 16.0.0, SVG Export Plug-In . SVG Version: 6.00 Build 0)  -->
<!DOCTYPE svg PUBLIC "-//W3C//DTD SVG 1.1//EN" "http://www.w3.org/Graphics/SVG/1.1/DTD/svg11.dtd">
<svg version="1.1" id="Layer_1" xmlns="http://www.w3.org/2000/svg" xmlns:xlink="http://www.w3.org/1999/xlink" x="0px" y="0px"
	 width="497.34px" height="373.005px" viewBox="162.044 97.533 497.34 373.005"
	 enable-background="new 162.044 97.533 497.34 373.005" xml:space="preserve">
<rect x="162.044" y="97.533" fill="#E3E1CF" width="497.34" height="373.005"/>
<rect x="162.044" y="97.533" fill="#E3E1CF" width="497.34" height="373.005"/>
<path fill="#D5C0A7" d="M525.144,437.696c-4.549-4.046-6.445-8.417-11.354-12.029c-4.705-3.465-11.693-5.442-17.932-8.186
	c-6.045-2.659-13.045-4.08-20.203-5.448c-15.455-2.954-31.205-0.881-47.541-1.894c-14.633-0.908-28.096-1.691-43.273-1.691
	c-17.203,0-33.64-0.377-50.209-2.851c-15.36-2.291-31.146-1.303-46.979-1.736c-14.82-0.405-30.963-0.086-45.47-1.72
	c-15.77-1.777-33.934-2.88-50.164-1.018c-7.011,0.804-12.469,2.164-19.925,2.164c-3.285,0-6.669-0.115-10.051-0.18v67.431h374.17
	l1.701-18.511C538.722,448.044,528.416,440.604,525.144,437.696z"/>
<polygon fill="#B6B0A9" points="659.385,383.046 648.295,374.376 564.804,374.376 516.285,375.636 365.688,455.976 409.066,470.538 
	659.385,470.538 "/>
<polygon fill="#978E84" points="496.349,411.9 500.875,397.195 552.277,404.735 598.15,432.26 594.758,450.735 "/>
<polygon fill="#ABA49D" points="491.447,413.407 502.76,404.735 546.982,410.895 583.07,434.522 553.66,439.8 "/>
<polygon fill="#978E84" points="491.447,413.407 487.677,425.17 552.203,451.952 553.66,439.8 "/>
<polygon fill="#A19990" points="552.203,451.952 553.66,439.8 583.07,434.522 580.806,445.518 "/>
<polygon fill="#ABA49D" points="659.385,392.964 533.525,386.261 500.875,397.195 551.408,404.533 598.15,432.26 659.385,400.159 
	"/>
<polygon fill="#978E84" points="534.826,379.573 533.912,383.621 613.568,419.624 613.396,404.967 573.515,383.152 "/>
<polygon fill="#ABA49D" points="533.912,383.621 518.595,390.407 553.66,394.468 589.857,415.67 604.56,406.62 571.183,386.694 "/>
<polygon fill="#978E84" points="518.595,390.407 517.271,397.195 552.791,402.182 589.857,423.965 589.857,415.67 555.418,394.714 
	"/>
<polygon fill="#A19990" points="589.857,423.965 589.857,415.67 604.56,406.62 604.56,415.67 "/>
<polygon fill="#A19990" points="659.385,383.156 613.396,404.967 613.568,419.624 659.385,396.297 "/>
<polygon fill="#A19990" points="659.385,400.159 598.15,432.26 594.758,450.735 659.385,413.078 "/>
<polygon fill="#ABA49D" points="585.691,327.76 588.383,312.949 591.885,311.064 596.73,314.834 593.5,330.722 "/>
<polygon fill="#ABA49D" points="659.385,375.117 651.892,369.483 650.816,363.979 659.385,365.084 659.385,332.053 655.683,334.045 
	653.81,344.343 601.037,323.652 579.613,324.911 576.777,341.295 615.215,358.938 614.799,360.722 594.945,360.094 534.826,379.573 
	573.515,383.152 613.396,404.967 659.385,383.156 "/>
<path fill="#C3A683" d="M659.385,455.291c-14.703,0.92-29.184,1.663-37.676,1.663c-41.281,0-56.197-12.875-102.559-22.14
	c-21.564-4.31-46.77-8.492-68.703-9.638c-21.842-1.141-43.143-0.815-64.721-3.046c-23.096-2.388-46.19-3.569-69.75-3.569
	c-20.942,0-39.355-5.649-60.466-5.672c-19.825-0.021-40.59-0.312-60.488,0.897c-8.415,0.511-21.423,5.551-32.978,8.131v48.62h497.34
	V455.291z"/>
<path fill="#B8966D" d="M638.881,435.343c-11.588,0.469-22.768,6.052-34.621,4.734c-13.246-1.473-31.848,1.296-45.365,2.367
	c-15.35,1.216-27.184,4.318-42.531,3.155c-13.797-1.045-16.457-1.572-30.244-3.155c-5.107-0.586-14.152,0.215-19.344-0.876
	c-11.018-2.313-26.213-0.095-37.576-1.52c-13.948-1.747-27.246-6.485-40.446-10.545c-13.459-4.14-25.801-3.56-39.472-1.954
	c-15.916,1.87-32.979,2.086-49.138,2.086c-13.716,0-23.574-4.045-36.507-5.612c-15.181-1.84-31.058-0.341-46.044-2.2
	c-12.029-1.494-23.26,0.978-35.346,1.445c-6.765,0.263-13.452-0.705-20.203-1.62v48.89h497.34v-35.384
	C651.847,435.119,643.781,435.145,638.881,435.343z"/>
</svg>
