<?xml version="1.0" encoding="utf-8"?>
<!-- Generator: Adobe Illustrator 16.0.0, SVG Export Plug-In . SVG Version: 6.00 Build 0)  -->
<!DOCTYPE svg PUBLIC "-//W3C//DTD SVG 1.1//EN" "http://www.w3.org/Graphics/SVG/1.1/DTD/svg11.dtd">
<svg version="1.1" id="Layer_1" xmlns="http://www.w3.org/2000/svg" xmlns:xlink="http://www.w3.org/1999/xlink" x="0px" y="0px"
	 width="841.891px" height="595.279px" viewBox="0 0 841.891 595.279" enable-background="new 0 0 841.891 595.279"
	 xml:space="preserve">
<g>
	<g>
		
			<path fill="#FFFFFF" stroke="#000000" stroke-width="1.7008" stroke-linecap="round" stroke-linejoin="round" stroke-miterlimit="10" d="
			M409.536,305.448c0,0-2.039,3.992-2.663,7.135c-0.624,3.141-0.415,3.938-0.415,3.938s-2.165,1.138-2.129,1.925
			c0.053,1.156,0.885,2.016,4.833,1.803c3.946-0.213,6.089-1.758,6.158-2.93c0.07-1.17,0.013-8.945,3.953-10.677"/>
		<path d="M406.639,314.499c0.029-0.184,0.062-1.375,0.099-1.58c0.514,0.431,1.204,0.9,1.798,0.93
			c1.108,0.053,2.699-0.266,2.838-0.746c0.138-0.479-1.454-0.957-2.77-1.011c-0.704-0.028-1.267-0.164-1.641-0.282
			c0.046-0.176,0.097-1.343,0.156-1.521c0.469,0.188,1.219,0.442,1.83,0.442c0.97,0,2.354,0.318,3.462,0.692
			c0.775,0.261,2.228,0.495,3.03,0.612c-0.023,0.138-0.042,2.262-0.058,2.401c-0.512-0.035-1.369-0.09-2.279-0.123
			c-1.455-0.053-2.7,1.171-4.432,1.117C407.785,315.405,407.098,314.941,406.639,314.499z"/>
	</g>
	<g>
		
			<path fill="#FFFFFF" stroke="#000000" stroke-width="1.7008" stroke-linecap="round" stroke-linejoin="round" stroke-miterlimit="10" d="
			M431.137,299.964c0,0,2.039,3.992,2.662,7.135c0.623,3.141,0.416,3.938,0.416,3.938s2.164,1.138,2.127,1.925
			c-0.051,1.156-0.885,2.016-4.83,1.802c-3.947-0.212-6.092-1.757-6.16-2.929c-0.07-1.17-0.011-8.945-3.954-10.677"/>
	</g>
	<g>
		
			<path fill="#FFFFFF" stroke="#000000" stroke-width="1.7008" stroke-linecap="round" stroke-linejoin="round" stroke-miterlimit="10" d="
			M421.085,306.944c4.804,0,5.748,2.713,9.814,2.686c2.066-0.015,4.664-1.838,6.219-4.1c2.15-3.129,1.837-6.782,1.414-9.326
			c-0.425-2.543-0.85-13-3.957-16.533c-2.246-2.551-5.436-3.25-13.49-3.25c-8.055,0-11.245,0.699-13.49,3.25
			c-3.109,3.533-3.533,13.99-3.957,16.533c-0.423,2.544-0.738,6.197,1.414,9.326c1.555,2.262,4.153,4.085,6.219,4.1
			C415.337,309.657,416.279,306.944,421.085,306.944z"/>
		<path d="M407.612,294.927l1.787,1.788c-1.456,0.065-2.051,1.058-2.051,2.315c0,1.258,2.978,4.236,4.5,4.236
			c2.978,0,6.325-4.104,9.237-4.104c2.912,0,6.259,4.104,9.236,4.104c1.523,0,4.501-2.979,4.501-4.236
			c0-1.257-0.595-2.25-2.052-2.315l1.787-1.788c0,0,2.646,1.589,2.646,3.772s-4.5,6.816-6.354,6.816
			c-1.853,0-6.721-3.971-9.765-3.971s-7.914,3.971-9.767,3.971s-6.353-4.633-6.353-6.816S407.612,294.927,407.612,294.927z"/>
		<path d="M404.931,286.537c0.647,0.769,0.96,2.898,0.96,2.898c1.853,0.397,15.193,0.662,15.193,0.662s13.339-0.265,15.193-0.662
			c0,0,0.312-2.13,0.961-2.898c0.247,1.23,0.441,2.487,0.6,3.68c-0.479,0.707-1.032,1.327-1.361,1.733
			c-0.861,1.059-0.464,5.823-5.361,5.823c-4.896,0-5.398-4.698-10.031-4.698c-4.633,0-5.134,4.698-10.031,4.698
			c-4.897,0-4.5-4.764-5.36-5.823c-0.33-0.406-0.883-1.026-1.361-1.733C404.489,289.024,404.685,287.767,404.931,286.537z"/>
	</g>
</g>
</svg>
