<?xml version="1.0" encoding="utf-8"?>
<!-- Generator: Adobe Illustrator 16.0.0, SVG Export Plug-In . SVG Version: 6.00 Build 0)  -->
<!DOCTYPE svg PUBLIC "-//W3C//DTD SVG 1.1//EN" "http://www.w3.org/Graphics/SVG/1.1/DTD/svg11.dtd">
<svg version="1.1" id="Layer_1" xmlns="http://www.w3.org/2000/svg" xmlns:xlink="http://www.w3.org/1999/xlink" x="0px" y="0px"
	 width="841.891px" height="595.279px" viewBox="0 0 841.891 595.279" enable-background="new 0 0 841.891 595.279"
	 xml:space="preserve">
<g>
	<g>
		
			<path fill="#FFFFFF" stroke="#000000" stroke-width="1.7008" stroke-linecap="round" stroke-linejoin="round" stroke-miterlimit="10" d="
			M432.744,305.448c0,0,2.037,3.992,2.662,7.134c0.623,3.142,0.414,3.94,0.414,3.94s2.166,1.137,2.131,1.924
			c-0.054,1.156-0.886,2.016-4.834,1.803c-3.946-0.213-6.09-1.758-6.158-2.929c-0.069-1.171-0.013-8.946-3.953-10.678"/>
		<path d="M435.641,314.498c-0.029-0.183-0.062-1.374-0.1-1.579c-0.514,0.432-1.203,0.9-1.797,0.93
			c-1.108,0.053-2.699-0.266-2.839-0.746c-0.138-0.479,1.454-0.957,2.77-1.012c0.704-0.027,1.267-0.162,1.641-0.282
			c-0.046-0.175-0.097-1.342-0.156-1.521c-0.47,0.188-1.219,0.442-1.829,0.442c-0.971,0-2.355,0.319-3.463,0.692
			c-0.775,0.261-2.228,0.495-3.029,0.612c0.022,0.138,0.041,2.261,0.057,2.401c0.514-0.035,1.369-0.09,2.28-0.123
			c1.454-0.053,2.7,1.172,4.431,1.117C434.495,315.404,435.182,314.941,435.641,314.498z"/>
	</g>
	<g>
		
			<path fill="#FFFFFF" stroke="#000000" stroke-width="1.7008" stroke-linecap="round" stroke-linejoin="round" stroke-miterlimit="10" d="
			M411.144,299.964c0,0-2.04,3.992-2.663,7.134c-0.623,3.142-0.417,3.94-0.417,3.94s-2.164,1.137-2.127,1.924
			c0.052,1.156,0.885,2.016,4.832,1.803c3.947-0.213,6.09-1.758,6.16-2.93c0.069-1.17,0.011-8.945,3.954-10.677"/>
	</g>
	<g>
		
			<path fill="#FFFFFF" stroke="#000000" stroke-width="1.7008" stroke-linecap="round" stroke-linejoin="round" stroke-miterlimit="10" d="
			M421.196,306.944c-4.805,0-5.748,2.713-9.815,2.686c-2.065-0.015-4.663-1.838-6.217-4.099c-2.151-3.13-1.837-6.783-1.414-9.327
			c0.424-2.543,0.849-13,3.957-16.533c2.245-2.551,5.434-3.25,13.489-3.25c8.055,0,11.245,0.699,13.49,3.25
			c3.107,3.533,3.532,13.99,3.955,16.533c0.424,2.544,0.738,6.197-1.412,9.327c-1.555,2.261-4.154,4.084-6.219,4.099
			C426.944,309.657,426,306.944,421.196,306.944z"/>
		<path d="M434.668,294.928l-1.787,1.787c1.457,0.066,2.051,1.059,2.051,2.316c0,1.257-2.977,4.235-4.499,4.235
			c-2.978,0-6.325-4.104-9.237-4.104c-2.912,0-6.259,4.104-9.237,4.104c-1.523,0-4.5-2.979-4.5-4.235
			c0-1.258,0.595-2.25,2.051-2.316l-1.786-1.787c0,0-2.647,1.588-2.647,3.772s4.5,6.816,6.353,6.816
			c1.853,0,6.722-3.971,9.766-3.971c3.045,0,7.914,3.971,9.768,3.971c1.853,0,6.352-4.633,6.352-6.816
			S434.668,294.928,434.668,294.928z"/>
		<path d="M437.348,286.537c-0.646,0.769-0.959,2.898-0.959,2.898c-1.854,0.397-15.193,0.662-15.193,0.662
			s-13.34-0.264-15.192-0.662c0,0-0.313-2.129-0.961-2.898c-0.247,1.23-0.442,2.487-0.599,3.679
			c0.479,0.708,1.032,1.328,1.361,1.734c0.861,1.059,0.464,5.823,5.36,5.823c4.897,0,5.398-4.698,10.032-4.698
			c4.633,0,5.135,4.698,10.031,4.698c4.897,0,4.5-4.764,5.359-5.823c0.331-0.406,0.885-1.026,1.362-1.734
			C437.791,289.024,437.596,287.767,437.348,286.537z"/>
	</g>
</g>
</svg>
